<svg xmlns="http://www.w3.org/2000/svg" viewBox="0 0 500 500"><g id="freepik--Floor--inject-120"><ellipse id="freepik--floor--inject-120" cx="250" cy="343.7" rx="244.73" ry="149.77" style="fill:#fafafa"></ellipse></g><g id="freepik--Shadow--inject-120"><path id="freepik--shadow--inject-120" d="M446.32,390.55,194.18,245a17.39,17.39,0,0,0-15.65,0L36.38,327.08c-5.84,3.36-5.85,8.88,0,12.25L286.65,483.82a15.28,15.28,0,0,0,13.8,0l145.87-84.23C450.63,397.1,450.63,393,446.32,390.55Z" style="fill:#ebebeb"></path></g><g id="freepik--device-2--inject-120"><g id="freepik--Mobile--inject-120"><path d="M217.44,167.68,434.92,367.62c5.46,5,4.47,10.18,3.65,14.82s-3.63,10.94-8.75,13.9L298.7,472c-5.12,3-12.48,2.41-16.43-1.22L64.8,270.88c-4-3.64-4-9.24-3.18-13.87s3.15-11.9,8.28-14.85L201,166.45C206.14,163.5,211.94,162.62,217.44,167.68Z" style="fill:#37474f"></path><path d="M210.31,173.6,75.48,251.45,293.9,452.19l-3.85,21.71a13,13,0,0,1-7.78-3.08L64.8,270.88c-4-3.64-4-9.24-3.18-13.87s3.15-11.9,8.28-14.85L201,166.45c3.2-1.84,7-3.09,10.91-2l-.11.67Z" style="fill:#263238"></path><path d="M432.59,368.68l-217.1-199.6c-3.14-2.88-9-3.31-13.07-1L74.43,242c-5.51,3.17-6.54,9-2.3,12.87L287.88,453.24c2.76,2.54,7.95,2.92,11.53.85l131.5-75.92C435,375.83,435.73,371.56,432.59,368.68Z" style="fill:#455a64"></path><path d="M131.51,314.63a8.51,8.51,0,0,1,2,7,3.13,3.13,0,0,1-1.31,2.3l-2.56,1.5a1.93,1.93,0,0,1-2.28-.51L110.11,309a8.48,8.48,0,0,1-2-7,3.26,3.26,0,0,1,1.23-2.26c.46-.28,2.19-1.28,2.64-1.53a1.91,1.91,0,0,1,2.28.5Z" style="fill:#455a64"></path><path d="M129,316.1l-17.29-15.89c-1.56-1.44-3.17-.62-3.6,1.81a8.51,8.51,0,0,0,2,7l17.29,15.9c1.56,1.43,3.17.61,3.6-1.82A8.44,8.44,0,0,0,129,316.1Z" style="fill:#37474f"></path><path d="M101.25,286.81a8.49,8.49,0,0,1,2,7,3.14,3.14,0,0,1-1.32,2.31c-.44.24-2.1,1.24-2.56,1.49a1.89,1.89,0,0,1-2.27-.51L79.85,281.21a8.49,8.49,0,0,1-2-7A3.26,3.26,0,0,1,79,272c.46-.29,2.19-1.29,2.64-1.54a1.91,1.91,0,0,1,2.28.51Z" style="fill:#455a64"></path><path d="M98.7,288.28,81.41,272.39c-1.55-1.43-3.17-.62-3.6,1.82a8.49,8.49,0,0,0,2,7L97.14,297.1c1.55,1.43,3.16.62,3.6-1.82A8.49,8.49,0,0,0,98.7,288.28Z" style="fill:#37474f"></path><path d="M219,179.85,421.72,366.24c3,2.75,2.28,6.82-1.6,9.05L301.15,444c-3.87,2.25-9.44,1.83-12.45-.93L84.52,255.33a5.06,5.06,0,0,1-.25-7.61c.18-.17.34-.35.53-.51a9.34,9.34,0,0,1,1.32-.92L119.59,227l2.18-1.25a3.48,3.48,0,0,1,3.86.28,3.64,3.64,0,0,0,4,.2l39-22.51c1.27-.74,1.58-2,.65-2.89a1.64,1.64,0,0,1,.27-2.68l.22-.14,32.74-18.89.69-.41C208.12,175.85,215.21,176.37,219,179.85Z"></path><path d="M124.64,231.57a3.46,3.46,0,0,0-3.86-.29l-2.18,1.26L85.13,251.86a9.34,9.34,0,0,0-1.32.92c-.19.17-.35.34-.53.52s-.09.12-.15.18a6,6,0,0,0,1.39,1.85L288.7,443.05c3,2.76,8.58,3.18,12.45.93l119-68.69a8,8,0,0,0,2-1.61,6,6,0,0,0-1.39-1.87L218,185.42c-3.77-3.47-10.86-4-15.76-1.17l-.69.4-31.88,18.4-.84,4.73a2.23,2.23,0,0,1-1.16,1.47l-39,22.52A3.64,3.64,0,0,1,124.64,231.57Z" style="fill:#fafafa"></path><path d="M177.18,239.9h0l-1.91-1.75a2.35,2.35,0,0,0-2.61-.34l-2.57,1.48a1.13,1.13,0,0,0-.15,1.93l1.91,1.76h0a.86.86,0,0,0-.12,1.47l3.85,3.54a1.8,1.8,0,0,0,2,.25l5.38-3.1a.86.86,0,0,0,.11-1.47l-3.84-3.54A1.8,1.8,0,0,0,177.18,239.9Zm-6.66,1a.65.65,0,0,1,.08-1.1l2.57-1.48a1.34,1.34,0,0,1,1.49.19l1.91,1.75-4.15,2.39Z" style="fill:#fafafa"></path><path d="M209.9,287.83a1.54,1.54,0,0,0-2-.15l-16.47,9.5,2.48-14.93a13.82,13.82,0,0,0,.27-5.78,8.61,8.61,0,0,0-2.84-4.6,14.18,14.18,0,0,0-3.45-2.32,12.68,12.68,0,0,0-4.28-1.22,15.81,15.81,0,0,0-4.93.29,18.3,18.3,0,0,0-5.41,2.16,12.21,12.21,0,0,0-4.07,3.46,7.46,7.46,0,0,0-1.43,3.66,6.8,6.8,0,0,0,.62,3.47,9.53,9.53,0,0,0,2,2.87,1.37,1.37,0,0,0,1.76.07l1-.57a1.08,1.08,0,0,0,.46-.57.92.92,0,0,0-.2-.88,6.09,6.09,0,0,1-1.65-5c.27-1.65,1.55-3.13,3.81-4.44a11.91,11.91,0,0,1,6.85-1.8,9.48,9.48,0,0,1,5.84,2.59,9.24,9.24,0,0,1,1.42,1.59,5,5,0,0,1,.76,1.77,7.48,7.48,0,0,1,.14,2.22,20.05,20.05,0,0,1-.48,2.95l-2.91,16.37a3.48,3.48,0,0,0-.1,1.34,1.45,1.45,0,0,0,.47.84l.56.52a1.49,1.49,0,0,0,1.92.14l20.15-11.63c.75-.44.85-.91.3-1.42Zm-53.2-5.66a1.5,1.5,0,0,0-1.92-.15l-.94.54a4.83,4.83,0,0,0-.6.41,1.38,1.38,0,0,0-.41.57l-4.25,11.77a.72.72,0,0,0,.11.76,1.44,1.44,0,0,0,.87.43l1.07.17c.86.15,1.42-.09,1.67-.73l3.57-9.89,22.6,20.77a1.49,1.49,0,0,0,1.92.14l.93-.54c.72-.41.81-.87.25-1.39Zm46.74-9.62a1.49,1.49,0,0,0,1.91.14l2.36-1.37a1.08,1.08,0,0,0,.58-.67.73.73,0,0,0-.28-.74l-1.82-1.68a1.54,1.54,0,0,0-.95-.39,1.8,1.8,0,0,0-1.06.24l-2.36,1.37a.92.92,0,0,0-.53.68.84.84,0,0,0,.33.74Zm64.39-17.32L243,232.37a1.49,1.49,0,0,0-1.91-.15l-.94.54a4.18,4.18,0,0,0-.6.41,1.38,1.38,0,0,0-.41.57l-4.25,11.77a.7.7,0,0,0,.1.75,1.45,1.45,0,0,0,.87.44l1.08.17c.85.15,1.41-.09,1.67-.74l3.57-9.88L264.73,257a1.49,1.49,0,0,0,1.92.14l.93-.54C268.3,256.21,268.38,255.75,267.83,255.23Zm-48.37,25.2a1.54,1.54,0,0,0-.94-.39,1.77,1.77,0,0,0-1.06.24l-2.36,1.36a.94.94,0,0,0-.54.68.87.87,0,0,0,.33.75l1.82,1.67a1.49,1.49,0,0,0,1.92.15l2.35-1.37a1.08,1.08,0,0,0,.59-.67.76.76,0,0,0-.29-.75ZM244.05,259a12.75,12.75,0,0,0-4.13-2.58,13.1,13.1,0,0,0-4.64-.84,16.89,16.89,0,0,0-4.95.78,24.86,24.86,0,0,0-5.05,2.24l-1,.57,1-14.6a3.47,3.47,0,0,0-.06-.45.84.84,0,0,0-.27-.44l-.57-.52a1.54,1.54,0,0,0-2-.15l-18.34,10.58c-.71.42-.79.89-.21,1.43l.57.52a1.49,1.49,0,0,0,1.92.14l14.84-8.57-.91,14.32a1.67,1.67,0,0,0,.08.55,1.31,1.31,0,0,0,.39.54l.57.52a1.49,1.49,0,0,0,1.91.15l4.33-2.5a15.81,15.81,0,0,1,7.18-2.33,8.39,8.39,0,0,1,6.21,2.43,6.28,6.28,0,0,1,1.83,2.63,4.17,4.17,0,0,1,0,2.66,6.84,6.84,0,0,1-1.69,2.54,15.13,15.13,0,0,1-3.15,2.32,23.21,23.21,0,0,1-2.87,1.41,14.73,14.73,0,0,1-3.21.91,11.67,11.67,0,0,1-3.34.09,8.86,8.86,0,0,1-3.33-1.11,2.15,2.15,0,0,0-1.29-.34,2.62,2.62,0,0,0-.92.3l-.68.4a1.08,1.08,0,0,0-.55.6.62.62,0,0,0,.24.66,8.61,8.61,0,0,0,3.27,1.71,14.24,14.24,0,0,0,4.37.57,20.59,20.59,0,0,0,5.12-.77,23.91,23.91,0,0,0,5.47-2.33,17.81,17.81,0,0,0,4.13-3.19,9.19,9.19,0,0,0,2.2-3.57,6.08,6.08,0,0,0,0-3.68A8.43,8.43,0,0,0,244.05,259Z" style="fill:#e0e0e0"></path><path d="M189.73,325.71l93.6-54c2.52-1.45,6.14-1.18,8.08.61l19.38,17.81c1.94,1.79,1.48,4.42-1,5.87l-93.61,54a7.28,7.28,0,0,1-8.08-.6l-19.38-17.81C186.74,329.79,187.21,327.16,189.73,325.71Z" style="fill:#e0e0e0"></path><path d="M224.64,357.81l93.61-54a7.31,7.31,0,0,1,8.08.6l19.38,17.82c1.94,1.78,1.47,4.41-1,5.87l-93.6,54c-2.52,1.45-6.14,1.19-8.08-.6L223.6,363.68C221.66,361.9,222.12,359.27,224.64,357.81Z" style="fill:#e0e0e0"></path><path d="M259.56,389.92l93.6-54a7.29,7.29,0,0,1,8.09.6l19.37,17.81c1.95,1.79,1.48,4.42-1,5.87l-93.6,54c-2.52,1.45-6.14,1.18-8.08-.61l-19.38-17.81C256.57,394,257,391.37,259.56,389.92Z" style="fill:#e0e0e0"></path><path d="M129.91,217.57l17.87-10.32a3,3,0,0,1,3.33.17c.77.71.53,1.78-.53,2.4L132.7,220.14a3,3,0,0,1-3.33-.17C128.6,219.26,128.84,218.19,129.91,217.57Z" style="fill:#263238"></path><path d="M156.39,201.43a3.48,3.48,0,0,1,3.85.29,1.66,1.66,0,0,1-.49,2.8,3.5,3.5,0,0,1-3.86-.29A1.67,1.67,0,0,1,156.39,201.43Z" style="fill:#263238"></path><g style="opacity:0.15"><polygon points="302.31 256.45 276.42 232.65 223.13 382.75 249.02 406.55 302.31 256.45" style="fill:#fff"></polygon><path d="M380.1,334.45l-43.89-40.34L284.65,439.33l4.05,3.72c3,2.76,8.58,3.18,12.45.93l50.39-29.09Z" style="fill:#fff"></path><path d="M199.57,361.1,252.86,211,219,179.85c-3.77-3.48-10.86-4-15.76-1.18l-.69.41L182.8,190.46l-41.55,117Z" style="fill:#fff"></path></g><path d="M118.08,250.08a.34.34,0,0,1-.16-.08l-.51-.48-1.62.93a.18.18,0,0,1-.24,0l-.19-.17a.31.31,0,0,1-.08-.1.81.81,0,0,1,0-.11l-.13-2.69a.31.31,0,0,1,0-.11s0-.05.1-.08l.22-.13a.29.29,0,0,1,.19,0,.35.35,0,0,1,.17.09l1.81,1.66.35-.21a.26.26,0,0,1,.18,0,.35.35,0,0,1,.17.09l.12.11a.17.17,0,0,1,.08.13s0,.08-.11.12l-.35.2.52.48s.08.1.07.13a.2.2,0,0,1-.11.12l-.28.16A.25.25,0,0,1,118.08,250.08Zm-1-1-1.29-1.18.12,1.86Z" style="fill:#e0e0e0"></path><path d="M119.69,248.68a2.93,2.93,0,0,1-1.67-.82,1.73,1.73,0,0,1-.71-1.37,1.54,1.54,0,0,1,.91-1.16,3.26,3.26,0,0,1,.72-.31,2.12,2.12,0,0,1,.68-.12.1.1,0,0,1,.13.09l.08.29s0,.06,0,.07l-.08,0a2.3,2.3,0,0,0-1,.32,1,1,0,0,0-.62.79,1.31,1.31,0,0,0,.55,1,2.23,2.23,0,0,0,1.21.63,1.78,1.78,0,0,0,1.18-.24,2.36,2.36,0,0,0,.36-.26,1.1,1.1,0,0,0,.24-.25l-.84-.78-.68.39a.25.25,0,0,1-.18.05.33.33,0,0,1-.16-.09l-.12-.11c-.06-.05-.09-.1-.08-.14s0-.07.11-.11l1.07-.62a.36.36,0,0,1,.21-.05.4.4,0,0,1,.2.11l1.2,1.1a.48.48,0,0,1,.08.1s0,.06,0,.1a2.27,2.27,0,0,1-1,1A2.76,2.76,0,0,1,119.69,248.68Z" style="fill:#e0e0e0"></path><path d="M133.11,240.65a.72.72,0,0,1-.22,1.21,1.51,1.51,0,0,1-1.66-.12.72.72,0,0,1,.22-1.21A1.51,1.51,0,0,1,133.11,240.65Z" style="fill:#e0e0e0"></path><path d="M130.26,239.44a2.06,2.06,0,0,0-1.17,2.19.44.44,0,0,0,.46.27h0c.29,0,.51-.19.46-.39a1.45,1.45,0,0,1,.82-1.55,2.9,2.9,0,0,1,2.25-.22.52.52,0,0,0,.63-.24h0c.06-.16-.05-.33-.26-.39A4.18,4.18,0,0,0,130.26,239.44Z" style="fill:#e0e0e0"></path><path d="M129.11,238.38a3.34,3.34,0,0,0-1.93,3.23c0,.18.21.31.46.31h0c.28,0,.49-.18.47-.38a2.72,2.72,0,0,1,1.56-2.64,5.46,5.46,0,0,1,3.9-.51.53.53,0,0,0,.61-.24h0c.06-.17-.08-.34-.31-.4A6.63,6.63,0,0,0,129.11,238.38Z" style="fill:#e0e0e0"></path><polygon points="100.63 260.73 99.64 259.81 101.36 258.82 102.36 259.74 100.63 260.73" style="fill:#e0e0e0"></polygon><polygon points="103.22 259.24 101.22 257.41 102.95 256.41 104.94 258.24 103.22 259.24" style="fill:#e0e0e0"></polygon><polygon points="105.8 257.75 102.81 255 104.54 254 107.53 256.75 105.8 257.75" style="fill:#e0e0e0"></polygon><polygon points="108.39 256.25 104.4 252.59 106.12 251.59 110.11 255.26 108.39 256.25" style="fill:#e0e0e0"></polygon><path d="M213.31,190.88a1.39,1.39,0,0,0-.93.11l-6.44,3.7c-.42.25-.41.74,0,1.14l1.81,1.66a2,2,0,0,0,.94.45,2.33,2.33,0,0,0,.45,0,1,1,0,0,0,.48-.13l6.44-3.71c.42-.24.41-.73,0-1.13l-1.81-1.66A1.92,1.92,0,0,0,213.31,190.88Zm-4.6,6.79a.89.89,0,0,1-.4-.22l-1.81-1.66c-.32-.29-.33-.69,0-.86l6.44-3.71a.73.73,0,0,1,.25-.08h.15a.75.75,0,0,1,.39.21l1.82,1.67c.31.29.32.68,0,.86l-6.44,3.71A.6.6,0,0,1,208.71,197.67Z" style="fill:#e0e0e0"></path><path d="M208,194.51l2.14,2-1,.58a.34.34,0,0,1-.31,0l-1.6-1.46c-.23-.21-.23-.51,0-.64Z" style="fill:#e0e0e0"></path><polygon points="208.49 194.25 209.7 193.55 211.84 195.52 210.63 196.21 208.49 194.25" style="fill:#e0e0e0"></polygon><polygon points="210.17 193.28 211.38 192.58 213.53 194.56 212.31 195.25 210.17 193.28" style="fill:#e0e0e0"></polygon><path d="M213.2,191.75l1.54,1.42c.29.26.16.6-.34.88l-.4.24-2.15-2,1-.56A.44.44,0,0,1,213.2,191.75Z" style="fill:#e0e0e0"></path><path d="M214.5,191.2c.18-.11.62.09,1,.43l.33.31c.38.34.54.71.37.82l-.31.2-1.71-1.57Z" style="fill:#e0e0e0"></path><polygon points="196.63 201.87 201.91 197.37 203.51 201.72 200.63 200.44 196.63 201.87" style="fill:#e0e0e0"></polygon></g></g><g id="freepik--Character--inject-120"><path id="freepik--shadow--inject-120" d="M328.37,269.61,304,247.23c-13.63-.83-31.1,5.64-43.58.33-5.92-2.52-11.5-5.85-17.61-7.84-15.77-5.12-30-2.66-45.43,3.3-18,6.93-47.4,20.11-35.92,44.44,6.41,13.57,21.11,19,34.39,23.39,15.89,5.25,32.25,8.84,48.54,12.53,1.08,4.64-.72,6.84-2.26,11.22-2.33,6.61-.44,14,2.47,20.35,2,4.25,4.48,8.45,8.44,10.93,7.52,4.72,10.71,1.05,12.83-5.86a104.26,104.26,0,0,0,4.29-22.27c-.1,1.27,4.12,4.79,5,5.68,1.89,1.89,3.89,3.67,5.93,5.4,4.08,3.48,8.33,6.75,12.26,10.4a85.34,85.34,0,0,1,10,11.44c2.54,3.39,2.82,7.84,5,11.4,2.78,4.47,6.09,4.76,10.9,6,5.3,1.41,9.72,5,14.67,7.33a34.89,34.89,0,0,0,20.65,2.87c5.34-.9,12.69-4.74,14.85-9.95a8.29,8.29,0,0,0-1.06-8.46c-1.74-2-4.44-2.79-7-3.57-1.1-.34-2.2-.69-3.29-1.06a105.32,105.32,0,0,1-11.49-4.58,81.25,81.25,0,0,1-8.07-4.34c-2.87-1.76-6.28-3.73-8.55-6.25-1.76-2-3.08-4.46-4.79-6.54-9.17-11.14-15.54-24.24-22-37.05-3.94-7.85,1.4-14.58,6.12-21S323.36,275.58,328.37,269.61Z" style="opacity:0.2"></path><g id="freepik--character--inject-120"><g id="freepik--Bottom--inject-120"><path d="M268.93,302.08l9.72-20.79,24.65,11c-12,12.69-24.95,28.08-27.76,33.54,0,0-13.18-2.47-15.45-9.06S265.48,304.41,268.93,302.08Z" style="fill:#ffbda7"></path><path d="M254.47,310.59a11.06,11.06,0,0,0-2.8,3.26c-.8,1.28-.34,7.32-1,10.16s-1.31,3.6-2.54,7.17c-1.36,3.95-4,7.6-.57,17.53s8.58,14.55,12.86,16.87a11,11,0,0,0,5.11,1.06s5.44-2.26,4.49-5.49S254.47,310.59,254.47,310.59Z" style="fill:#263238"></path><path d="M279,320.82c-.12,1-1.51,2.67-2.07,3.54-1.88,2.9-2.67,6.76-3.24,10.14-2.74,16,3.83,23.85-4.52,30.08-2.42,1.64-7.57,1.37-15.7-8.38-4.15-5-6.77-15.42-5.37-20.23s3.43-8,4.32-11.67.14-10.5,2.06-13.71a14.7,14.7,0,0,1,4.82-4.42c1.48-1,4.76-2.29,6.27-3.22s2.34-2,3.37-.87l-1.71,2.27c-2.66,3.94-1.87,4.48-1.74,6.53s-.5,4.43-.82,6.57c1.9-2.56,2.64-4.77,4.82-4.46,2,.3,2.43.2,5.62,3S279.1,319.9,279,320.82Z" style="fill:#015FC9"></path><path d="M279,320.82c-.12,1-1.51,2.67-2.07,3.54-1.88,2.9-2.67,6.76-3.24,10.14-2.74,16,3.83,23.85-4.52,30.08-2.42,1.64-7.57,1.37-15.7-8.38-4.15-5-6.77-15.42-5.37-20.23s3.43-8,4.32-11.67.14-10.5,2.06-13.71a14.7,14.7,0,0,1,4.82-4.42c1.48-1,4.76-2.29,6.27-3.22s2.34-2,3.37-.87l-1.71,2.27c-2.66,3.94-1.87,4.48-1.74,6.53s-.5,4.43-.82,6.57c1.9-2.56,2.64-4.77,4.82-4.46,2,.3,2.43.2,5.62,3S279.1,319.9,279,320.82Z" style="opacity:0.4"></path><path d="M253.46,356.2c-4.15-5-6.77-15.42-5.37-20.23a46.18,46.18,0,0,1,1.68-4.67c-.05.33-.14.66-.17.93q-.12.93-.18,1.86a14.27,14.27,0,0,0,1,7.18c1,2,3.2,6.85,5.88,6.87,1.51,0,2.74-1.51,3.27-3.22.22-.72.56-2.66.56-2.66a23.82,23.82,0,0,1,7,2.61c4,2.44,3.83,3,3.83,3a10.25,10.25,0,0,0,0,3.41,8.45,8.45,0,0,0,1.55,3.34,5.45,5.45,0,0,0,1,.76c0,3.66-.9,6.57-4.41,9.19C266.74,366.22,261.59,366,253.46,356.2Z" style="opacity:0.30000000000000004"></path><path d="M273.68,334.5a53.51,53.51,0,0,0-.58,12.72c-1.33,4.11-2.61,4-2.86,1.94s2.28-10.94,4.14-18.23C274.1,332.14,273.87,333.35,273.68,334.5Z" style="fill:#37474f"></path><path d="M263.19,309.36a8.85,8.85,0,0,1,1.37-5.86c.37-.19.72-.38,1-.55,1.64-1,2.34-2,3.37-.87l-1.71,2.27c-2.66,3.94-1.87,4.48-1.74,6.53s-.5,4.43-.82,6.57c-1.39,6.95-2.8,9.3-3.35,15.83s.9,10.87,0,11.27-2.79-.28-3.3-5.49,1.51-14.05,3-18.26S263.61,312.13,263.19,309.36Z" style="fill:#37474f"></path><path d="M259.71,342.73a.59.59,0,0,0,.33.17c4.61.8,7.08,1.87,10.61,5.76a.65.65,0,1,0,1-.87c-3.73-4.12-6.45-5.32-11.35-6.17a.66.66,0,0,0-.75.53A.68.68,0,0,0,259.71,342.73Z" style="fill:#ebebeb"></path><path d="M260.35,337.28a.78.78,0,0,0,.34.17c4.76.94,7.43,2.19,11.17,6.3a.67.67,0,0,0,1-.9c-4-4.32-6.86-5.71-11.91-6.71a.66.66,0,0,0-.78.52A.68.68,0,0,0,260.35,337.28Z" style="fill:#ebebeb"></path><path d="M260.05,331.3a.74.74,0,0,0,.36.19c5.25,1,8.37,2.56,12.5,7.08a.73.73,0,1,0,1.08-1c-4.35-4.76-7.73-6.43-13.29-7.53a.74.74,0,0,0-.87.58A.73.73,0,0,0,260.05,331.3Z" style="fill:#ebebeb"></path><path d="M260.75,326.17a.69.69,0,0,0,.35.18c5.15,1,8.17,2.47,12.22,6.92a.73.73,0,0,0,1,0,.72.72,0,0,0,.05-1c-4.26-4.66-7.55-6.28-13-7.35a.7.7,0,0,0-.84.56A.71.71,0,0,0,260.75,326.17Z" style="fill:#ebebeb"></path><path d="M262.46,321.13a.74.74,0,0,0,.36.19c5.15,1,8.15,2.47,12.22,6.91a.72.72,0,1,0,1.06-1c-4.27-4.67-7.54-6.28-13-7.36a.72.72,0,0,0-.64,1.23Z" style="fill:#ebebeb"></path><path d="M241.55,226.84s55.78-2.53,76.84-1.52c21.49,1,22.81,17.26,17,26.92-11.09,18.5-46,55.78-46,55.78s-13.21-4.6-16.47-15.16l7.76-18.44-41.91,4-7.35-5.77Z" style="fill:#455a64"></path><path d="M294.45,289.67c-4.37-6.09-7.39-7.59-15.59-10.82l-5.89,14c3.26,10.56,16.47,15.16,16.47,15.16s4-4.3,9.77-10.7A80.86,80.86,0,0,0,294.45,289.67Z" style="fill:#37474f"></path><path d="M284.35,256.85c-2.86,3.9-5.36,7.42-7.49,10.78s-8.41,4.77-14.64,3.22a120.92,120.92,0,0,1-21.34-8c3.79-6.3,3.44-14.21,3.44-14.21a28.47,28.47,0,0,1-10.2,15l1.11,11,2.86,3.79,36-3.45h0l5.85-.56c8.14-17.32,11.31-25,20.6-28.19C300.59,246.2,292.82,245.29,284.35,256.85Z" style="fill:#37474f"></path><path d="M308.15,363l-18.81-21.84,20-15.95c8.47,14.39,16.73,28.16,22.26,33.56,0,0-4.35,12.67-11.62,13.12S309.53,367.1,308.15,363Z" style="fill:#ffbda7"></path><path d="M312.28,375.82a11.45,11.45,0,0,0,2.5,3.72c1.06,1.16,7.27,2.38,9.93,3.89s3.26,2.33,6.5,4.56c3.6,2.47,6.54,6.14,17.5,5.46s17-4.57,20.55-8.24a11.42,11.42,0,0,0,2.5-4.84s-.76-6.11-4.27-6.05S312.28,375.82,312.28,375.82Z" style="fill:#263238"></path><path d="M329.41,354c1,.41,2.27,2.27,3,3.08,2.4,2.7,6.07,4.57,9.31,6.09,15.32,7.21,25.07,2.79,29,12.93,1,2.9-.73,8-12.81,13.47-6.17,2.79-17.41,2.51-21.86-.24s-7.07-5.68-10.54-7.6-10.53-3.07-13.22-5.89a15.28,15.28,0,0,1-3.11-6.09c-.57-1.76-2.12-7.82-2.12-7.82,3.23,3.78,6.49,2.46,8.59,2.9s4.31,1.74,6.38,2.66c-2-2.63-4.07-4-3.14-6.09s.88-2.39,4.59-4.82S328.51,353.62,329.41,354Z" style="fill:#015FC9"></path><path d="M329.41,354c1,.41,2.27,2.27,3,3.08,2.4,2.7,6.07,4.57,9.31,6.09,15.32,7.21,25.07,2.79,29,12.93,1,2.9-.73,8-12.81,13.47-6.17,2.79-17.41,2.51-21.86-.24s-7.07-5.68-10.54-7.6-10.53-3.07-13.22-5.89a15.28,15.28,0,0,1-3.11-6.09c-.57-1.76-2.12-7.82-2.12-7.82,3.23,3.78,6.49,2.46,8.59,2.9s4.31,1.74,6.38,2.66c-2-2.63-4.07-4-3.14-6.09s.88-2.39,4.59-4.82S328.51,353.62,329.41,354Z" style="opacity:0.4"></path><path d="M357.9,389.55c-6.17,2.79-17.41,2.51-21.86-.24a44.24,44.24,0,0,1-4.23-3c.31.15.62.33.89.44.6.25,1.21.49,1.82.7a14.9,14.9,0,0,0,7.52,1c2.23-.42,7.77-1.31,8.54-4,.44-1.52-.75-3.19-2.32-4.19-.67-.43-2.52-1.32-2.52-1.32a24.47,24.47,0,0,1,4.59-6.35c3.55-3.3,4.09-3,4.09-3a10.71,10.71,0,0,0,3.43,1,8.9,8.9,0,0,0,3.79-.63,6.21,6.21,0,0,0,1.05-.81c3.68,1.06,6.36,2.75,8,7C371.68,379,370,384.09,357.9,389.55Z" style="opacity:0.30000000000000004"></path><path d="M341.7,363.15a55.66,55.66,0,0,0,12.64,4.13c3.77,2.48,3.33,3.75,1.15,3.41s-10.37-5.34-17.19-9.24C339.44,362.07,340.59,362.63,341.7,363.15Z" style="fill:#37474f"></path><path d="M313.47,366.69c-2.07-.25-3.69-.18-5.43-1.23-1.11-.61-1.64-3.23-1.54-4.39l1.76,2c3.07,1.52,5.28,1.27,7.38,1.71s4.31,1.74,6.38,2.66c6.6,3.34,8.58,5.41,15,7.78s11.19,2.14,11.34,3.16-1.06,2.73-6.44,1.79-13.72-5.44-17.54-8.12S316.38,367,313.47,366.69Z" style="fill:#37474f"></path><path d="M346.09,379.51a.7.7,0,0,0,.26-.3c2.08-4.41,3.85-6.6,8.76-9.06a.69.69,0,0,0,.3-.91.69.69,0,0,0-.91-.31c-5.19,2.61-7.16,5-9.38,9.71a.68.68,0,0,0,1,.87Z" style="fill:#ebebeb"></path><path d="M340.77,377.33a.66.66,0,0,0,.27-.28c2.28-4.53,4.28-6.87,9.46-9.5a.67.67,0,0,0,.3-.93.69.69,0,0,0-.93-.31c-5.45,2.78-7.66,5.31-10.07,10.11a.69.69,0,0,0,.31.94A.67.67,0,0,0,340.77,377.33Z" style="fill:#ebebeb"></path><path d="M334.67,376a.72.72,0,0,0,.3-.32c2.51-5,4.9-7.7,10.61-10.6a.77.77,0,0,0-.7-1.37c-6,3.05-8.62,6-11.29,11.28a.77.77,0,0,0,.35,1A.73.73,0,0,0,334.67,376Z" style="fill:#ebebeb"></path><path d="M329.7,373.84a.79.79,0,0,0,.29-.31c2.46-4.9,4.76-7.52,10.37-10.37a.77.77,0,0,0,.33-1,.76.76,0,0,0-1-.33c-5.88,3-8.42,5.84-11,11a.76.76,0,0,0,.34,1A.74.74,0,0,0,329.7,373.84Z" style="fill:#ebebeb"></path><path d="M325.11,370.71a.73.73,0,0,0,.29-.31c2.46-4.9,4.76-7.52,10.37-10.37a.75.75,0,0,0-.68-1.34c-5.89,3-8.43,5.84-11,11a.76.76,0,0,0,.34,1A.74.74,0,0,0,325.11,370.71Z" style="fill:#ebebeb"></path><path d="M320.24,342c-5.07,8.27-18.1,14.78-18.1,14.78s-5.21-5.13-17.8-16.28c-8.88-7.86-16.13-15.56-21.17-24.82-15.44-3.76-43.68-5.77-72-15.75-14.52-5.12-23.62-17.14-26-31.23a65.52,65.52,0,0,1,2.17-28.09c7.77-24.4,74.24-13.8,74.24-13.8l-7.43,36.79s34.05,14.63,45.63,20c5.32,2.46,6.86,2.44,12.89,11.6C306.42,316.15,320.24,342,320.24,342Z" style="fill:#455a64"></path><path d="M306,354.66l1-.65c-6.67-6.8-23.43-24.47-28.45-31.88-1.73-2.54-3.07-4.82-4.26-6.82-2.78-4.71-4.62-7.82-8.17-8.84-.76-.22-2.59-.68-5.36-1.37-14.12-3.51-51.62-12.83-64.45-20.48-.38-.23-.74-.48-1.11-.71,4.69-4.28,4.55-12.83,1.33-18.22-3.45-5.77-5.79-17-3.53-22.4l-1.1-.47c-2.64,6.25.37,18.08,3.6,23.49,3,5.05,3,13.22-1.34,16.92-12.26-8.4-18-22.42-16.69-40.75l-1.19-.09c-1.45,19.86,5.27,34.82,19.42,43.26,13,7.74,50.6,17.09,64.77,20.61,2.66.67,4.58,1.14,5.32,1.36,3.09.89,4.83,3.84,7.47,8.3,1.2,2,2.55,4.31,4.3,6.89C282.85,330.59,299.78,348.32,306,354.66Z" style="fill:#37474f"></path></g><g id="freepik--Top--inject-120"><path d="M213.49,86.23a21.63,21.63,0,0,0-8.71-5.91c-9.46-3.8-21.23-3.24-30.46,1A21.29,21.29,0,0,0,163.5,92.49a20.3,20.3,0,0,0-1.17,4c-.08.47,0,1.76-.27,2.11s-1.2.48-1.53.69c-2.36,1.47-4.86,2.85-6.32,5.34a10.52,10.52,0,0,0-1.07,8c.26,1,.66,2,.22,2.94-.65,1.36-2.56,1.33-4.05,1.09,1,.16,2,1.21,3.15,1.37a9.06,9.06,0,0,0,3.44-.39c-.56,1.28-1.39,2.24-1.64,3.72a8,8,0,0,0,.85,5.22c.82,1.48,2,2.64,1.79,4.43a6.17,6.17,0,0,1-2.67,4c-1.6,1.2-3.5,2.14-4.56,3.84a5.45,5.45,0,0,0,1.51,7.12,6.13,6.13,0,0,0,3.12,11,6.1,6.1,0,0,0,2.34,6.8,8.05,8.05,0,0,0,7.39.72c-.34.13.92,2.13,1.07,2.3a4.88,4.88,0,0,0,2.46,1.54c2.13.55,4.54-.59,6.44-1.46A15,15,0,0,0,193.63,168,10.16,10.16,0,0,0,202,169.3a14.06,14.06,0,0,0,3.69-1.4c.44-.31,2.63-4.09,1.88-4.28a11.69,11.69,0,0,0,5.72.25,6.09,6.09,0,0,0,4.3-3.54,9.78,9.78,0,0,0,0-5,17,17,0,0,0,4.55-.65,5.58,5.58,0,0,0,3.43-2.9c1-2.21-.18-4.75-1.52-6.75a5.67,5.67,0,0,0,4.26-6.2,7.53,7.53,0,0,0-5.21-5.9,6.6,6.6,0,0,0-2.12-10,17.39,17.39,0,0,0-4-1.21c-2.24-.54-4.85-2-4.14-4.78a11.36,11.36,0,0,1,2.12-3.6,5.2,5.2,0,0,0,1.28-3.88,4.28,4.28,0,0,1,3,5.31,4.41,4.41,0,0,0,2.95-4.26c-.17-3.51-4.38-5.66-4.9-9.14-.19-1.29.14-2.61.07-3.91a23.12,23.12,0,0,0-.41-3.8,18.33,18.33,0,0,0-3.11-6.93Z" style="fill:#263238"></path><path d="M240.3,163.85c5.15,6.42,13.72,15.21,22.05,25.09l1.82-1.65c3.91-3.56,7.79-7.15,11.6-10.82,2-1.91,4-3.83,5.87-5.83.71-.74,1.41-1.5,2.08-2.28,1.75-2.06,1.37-5,1.51-7.52a35.62,35.62,0,0,1,1.45-9.23c.31-1,.7-1.91,1-2.87a27.28,27.28,0,0,0,1.36-6.33,3.92,3.92,0,0,1,.38-1.66c.67-1.17,2.1-.6,2.87.15a5.17,5.17,0,0,1,1.19,3.12c.29,2.41-.19,4.8-.09,7.22,0,.91.34,2,1.22,2.22A1.58,1.58,0,0,0,296,153a18.68,18.68,0,0,0,2.67-3.54q1.39-2.06,2.81-4.1c1.64-2.37,3.25-4.8,5.09-7,2.42-2.89,4.29-3.22,5.24-2.07.54.65-.73,2.8-3.35,7.42s-4.74,7.59-4.42,7.79,2-3.21,5.52-7.34c3.2-3.8,4.82-5.42,6.85-6.08s2.64.83,1.78,2.12c-1.07,1.61-2.24,3.54-6.68,9.29a44.2,44.2,0,0,0-3.84,5.45c.25.41,2.85-2.56,6.62-5.66,3.43-2.84,5.25-4.31,6.84-5.12a1.22,1.22,0,0,1,1.72,1.54c-.37.94-1.94,2.74-3.92,5-2.13,2.45-3.1,3.23-4.84,5-1.19,1.2-2.71,2.79-2.54,3s7.17-4.36,9.45-5.13c2.56-.86,3,1.21,1.42,2.79-.92.91-4.48,3.64-7.7,6.82-2.34,2.3-5,5.42-6.34,6.76-6.76,6.58-7.86,6-10.86,9.37s-8.27,11.47-14.72,19.71c-5.33,6.8-11.09,13.51-13.38,15.73-6.85,6.64-11,3.32-19.06-3.51-9.1-7.72-21.1-22.31-23.12-25.36L211,149.47C223.35,148.88,231.43,152.77,240.3,163.85Z" style="fill:#ffbda7"></path><path d="M296.16,157.3s-.06.06,0,.09a11.39,11.39,0,0,1,1.3,3.38,11.17,11.17,0,0,1,.34,3.5,11.64,11.64,0,0,1-.58,3.1,15.67,15.67,0,0,1-.63,1.46,23.75,23.75,0,0,0-1.25,2.33c0,.13.07.37.22.28a4.45,4.45,0,0,0,1.33-1.4,12.49,12.49,0,0,0,1.09-1.87,11.23,11.23,0,0,0,1.12-4A8,8,0,0,0,296.16,157.3Z" style="fill:#f0997a"></path><path d="M262.35,188.94c3.58,4.21,4.24,10.58,3.45,14.16,2.68-5.09,1.76-11.56-1.42-16Z" style="fill:#f0997a"></path><g id="freepik--Chest--inject-120"><path d="M235.93,201.68c9.87-10.62,5.73-22.94,2.56-27.64C228.68,159.47,211,149.47,211,149.47a125.53,125.53,0,0,0-15.93,1.58C187.7,152.25,167,161.4,167,161.4a35.54,35.54,0,0,1,3.61,17.89c-.49,15.26-6,21.67-6,21.67s4.42,14.56,5.47,18.35c.7,2.56-.44,7.89-1.71,12.78a121.27,121.27,0,0,0-3.67,20.68C180,266,241.93,261.71,241.6,226.51c-1.59-4-3.11-5.71-4.23-9.62A43.22,43.22,0,0,1,235.93,201.68Z" style="fill:#015FC9"></path><path d="M216.25,205.86s-5.72,7.44-18.4,5.57-15.34-11.35-15.34-11.35-.51,12.28,14.64,14.45C212.06,216.68,216.25,205.86,216.25,205.86Z" style="fill:#263238;opacity:0.2"></path></g><g id="freepik--Arm--inject-120"><g id="freepik--arm--inject-120"><path d="M167,161.42c-14.24,5.55-16.1,7.71-21.61,23.32-4.51,12.8-8.65,21.36-13.22,40.3-2,8.24-3.56,11.78,5.5,18,14.88,10.19,28.17,12.41,34.16,16.4a19.65,19.65,0,0,1,6.27,6.55s4.62-27.85-1.37-24.16c-3.16,1.95-15.5-11.8-19.06-14.54l8.87-23.92C168.88,198.25,178.07,174.9,167,161.42Z" style="fill:#ffbda7"></path><path d="M173.38,252.68a11.64,11.64,0,0,1,.33-5.38c.45-1.67,2.45,7.61,2.45,7.61l1.25,9.86,0,.08a18,18,0,0,0-4.19-4.46,6.75,6.75,0,0,1,0-3.29A8.43,8.43,0,0,0,173.38,252.68Z" style="fill:#f0997a"></path><g id="freepik--Coffee--inject-120"><path d="M181.8,238c5.24-1.89,13.58-1.85,18.62.09s5,5,0,6.92-13.4,1.85-18.62-.09S176.56,239.83,181.8,238Z" style="fill:#263238"></path><path d="M177.62,231.36l26.82.72-2.29,33.24h0c-.16,1.14-1.26,2.24-3.34,3.06-4.41,1.74-11.61,1.56-16.08-.42-2.1-.92-3.18-2.08-3.28-3.22h0Z" style="fill:#fafafa"></path><path d="M204.44,232.08l-.58,6.36a11.7,11.7,0,0,1-2.27,1.13c-5.86,2.24-15.43,2-21.36-.55-.26-.11-.47-.22-.71-.34a13.48,13.48,0,0,1-1.65-1l-.25-6.34Z" style="fill:#ebebeb"></path><path d="M175.89,232.56l.14-5.19,3.12.08a13.81,13.81,0,0,1,1.39-.65c6.07-2.43,15.63-2.18,21.37.55.47.23.89.47,1.29.71l3,.08-.14,5.2h0c0,1.69-1.54,3.34-4.47,4.56-5.87,2.44-15.43,2.19-21.36-.55C177.3,236,175.85,234.25,175.89,232.56Z" style="fill:#37474f"></path><path d="M180.65,222.8c6.06-2.42,15.63-2.18,21.36.55s5.62,6.92-.24,9.36-15.43,2.18-21.37-.55S174.58,225.23,180.65,222.8Z" style="fill:#455a64"></path><path d="M178.84,226.19h0l1.07-4.26,7.68.19a29,29,0,0,1,7.62.2l7.45.19.86,4.31h0c.44,1.57-.75,3.17-3.58,4.29-4.84,1.92-12.72,1.72-17.61-.45C179.44,229.39,178.3,227.73,178.84,226.19Z" style="fill:#37474f"></path><path d="M183.32,219.28c4.59-1.66,11.83-1.48,16.17.41s4.27,4.77-.17,6.43-11.67,1.48-16.17-.41S178.73,220.94,183.32,219.28Z" style="fill:#455a64"></path><path d="M181.4,222.45a1.41,1.41,0,0,0,.49.62,7,7,0,0,0,1.84,1.06,21.94,21.94,0,0,0,7.57,1.43,20.89,20.89,0,0,0,7.52-1,6.35,6.35,0,0,0,1.82-1c.38-.31.49-.54.49-.6s-.37-.88-2.23-1.69a20.88,20.88,0,0,0-7.45-1.42,22.08,22.08,0,0,0-7.64,1C181.91,221.57,181.41,222.3,181.4,222.45Z" style="fill:#37474f"></path><path d="M181.89,223.07a7,7,0,0,0,1.84,1.06,21.94,21.94,0,0,0,7.57,1.43,20.89,20.89,0,0,0,7.52-1,6.35,6.35,0,0,0,1.82-1,6.59,6.59,0,0,0-1.77-1.07,21.16,21.16,0,0,0-7.45-1.41,21.58,21.58,0,0,0-7.64,1A6.81,6.81,0,0,0,181.89,223.07Z" style="fill:#455a64"></path><g style="opacity:0.2"><path d="M181.89,223.07a7,7,0,0,0,1.84,1.06,21.94,21.94,0,0,0,7.57,1.43,20.89,20.89,0,0,0,7.52-1,6.35,6.35,0,0,0,1.82-1,6.59,6.59,0,0,0-1.77-1.07,21.16,21.16,0,0,0-7.45-1.41,21.58,21.58,0,0,0-7.64,1A6.81,6.81,0,0,0,181.89,223.07Z" style="fill:#fff"></path></g><g style="opacity:0.5"><path d="M186.44,223.3a2.14,2.14,0,0,0-1.79-.41c-.34.19-.08.69.57,1.11a2.15,2.15,0,0,0,1.79.42C187.34,224.22,187.09,223.72,186.44,223.3Z"></path></g><path d="M203.38,253c0,1.18-1.21,2.35-3.59,3.24-4.77,1.78-12.63,1.74-17.55-.09-2.45-.91-3.68-2.09-3.68-3.27l-.7-11.52c0,1.25,1.29,2.51,3.91,3.48,5.22,1.94,13.55,2,18.62.09,2.53-.94,3.8-2.19,3.81-3.44Z" style="fill:#455a64"></path><path d="M195.19,253.67a17.38,17.38,0,0,0,1.05-1.95,5.83,5.83,0,0,1,3-2.64.38.38,0,0,1,.47.17,4.09,4.09,0,0,1-1.13,4.55,4.19,4.19,0,0,1-4.56,1.11.15.15,0,0,1,0-.22A3.83,3.83,0,0,0,195.19,253.67Z" style="fill:#263238"></path><path d="M198.56,248.71a6.7,6.7,0,0,0-1.92,1.16,5.76,5.76,0,0,0-1.39,1.88A5.58,5.58,0,0,1,193.5,254,.39.39,0,0,1,193,254a4,4,0,0,1,1-4.85,4.13,4.13,0,0,1,4.68-1A.36.36,0,0,1,198.56,248.71Z" style="fill:#263238"></path></g><path d="M174.49,258.49a15.62,15.62,0,0,1,.31-2.13c.25-1.66-.55-3.42-.91-5.05a10.82,10.82,0,0,1,0-5c.34-1.43,2-2.53,3.1-3.4l.1.41s1.12,5.39,1.23,5.84c2.92,4.78,8.68,4.81,12.46,7.06,3.54,2.1,2.88,5,1.17,5.23a27.3,27.3,0,0,1-4.41,0s2.06.14,6,2.14,3.07,4.34,1.74,4.54c-.86.13-8.52-.17-8.52-.17a23.59,23.59,0,0,1,5,1.79c1.85,1.07,2.12,3.31.22,3.38A54.52,54.52,0,0,1,182,272a3.57,3.57,0,0,1-1.4-.8,29.19,29.19,0,0,1-3.56-3.89,6.55,6.55,0,0,1-1.37-2,16.18,16.18,0,0,1-.17-2.41c-.15-1.44-1-2.77-1-4.22Z" style="fill:#ffbda7"></path><path d="M187.55,261.4a28.12,28.12,0,0,0-3.12-.71,10.1,10.1,0,0,1-2.89-.75c-.86-.52-1.73-1.14-2.61-1.72s-1.79-1.12-2.66-1.74a13.2,13.2,0,0,0,2.21,2.33,18.17,18.17,0,0,0,2.61,1.93,7.59,7.59,0,0,0,3.26.65C185.42,261.44,186.48,261.44,187.55,261.4Z" style="fill:#f0997a"></path><path d="M186.77,267.91c-1-.22-1.93-.38-2.89-.51a13.12,13.12,0,0,1-2.7-.57,3.64,3.64,0,0,1-1-.81l-1-1c-.68-.69-1.4-1.36-2.16-2a19.57,19.57,0,0,0,1.62,2.48c.29.39.61.76.93,1.14a4,4,0,0,0,1.25,1,8.39,8.39,0,0,0,3,.45A19.38,19.38,0,0,0,186.77,267.91Z" style="fill:#f0997a"></path><path d="M157.69,227.27c-4.49-3.44-11.72-2.64-14.62.67,5-3.05,13.48,0,18.3,2.69Z" style="fill:#f0997a"></path></g></g><g id="freepik--Head--inject-120"><path d="M176.94,153.27c0-4.4-.14-15.52-.14-15.52-.71,1.5-5.6,4.36-10.24,0-5.35-5-5.54-9.31-3.22-12.7,2.66-3.87,8.61-4.23,12,.35,4.05.09,4.57-6.18.43-11.19,6-5,7.58-12.48,4.59-19,11.83,5.81,21.29-4.81,28.66,1,1.94,3.25,4.05,7.41,5.5,17.28,2.52,17.11.48,24.07-3.44,26.91-2.34,1.7-4.06,2.5-9.06,3.13,0,0,.12,2,.26,4.56.09,1.44.5,2,2.56,1.76,2.74,2.5,20,14.79-.28,20s-29-9.49-31-11.23C176.3,157.47,177,155.78,176.94,153.27Z" style="fill:#ffbda7"></path><path d="M194.76,129.11l7.28,1.3a3.63,3.63,0,0,1-4.21,3.11A3.88,3.88,0,0,1,194.76,129.11Z" style="fill:#b16668"></path><path d="M195.42,130.66a4.07,4.07,0,0,1,4.44,2.61,3.58,3.58,0,0,1-2,.25,3.8,3.8,0,0,1-2.94-2.72A4.1,4.1,0,0,1,195.42,130.66Z" style="fill:#f0997a"></path><path d="M211.07,108.15l-5.52-1.32a2.73,2.73,0,0,1,3.32-2.15A3,3,0,0,1,211.07,108.15Z" style="fill:#263238"></path><path d="M184.73,111.2l4.83-3.13a2.76,2.76,0,0,0-3.9-.93A3,3,0,0,0,184.73,111.2Z" style="fill:#263238"></path><path d="M205.76,113a2.43,2.43,0,0,0,2.5,2.27,2.27,2.27,0,0,0,2.24-2.4,2.43,2.43,0,0,0-2.5-2.27A2.27,2.27,0,0,0,205.76,113Z" style="fill:#263238"></path><path d="M188.27,115.19a2.44,2.44,0,0,0,2.5,2.28,2.29,2.29,0,0,0,2.24-2.41,2.43,2.43,0,0,0-2.5-2.27A2.28,2.28,0,0,0,188.27,115.19Z" style="fill:#263238"></path><path d="M202.07,143.54c-9,1-17.52-.78-22.48-6.53,0,0,0,4.76,6.54,7.66,6.88,3.07,16.09,1.85,16.09,1.85Z" style="fill:#f0997a"></path><polygon points="206.16 121.8 199.16 125.19 197.85 108.82 206.16 121.8" style="fill:#f0997a"></polygon></g></g><g id="freepik--Glasses--inject-120"><path d="M172.74,105.29c0-3.18,11.12-4.38,21.81-5.92,10.54-1.52,18.78-3.49,21.14-1.44.25.22,4,2.89,4.78,3.45a1.9,1.9,0,0,1,.7.93c1.17,3.28,2.57,14.87.52,17.66s-14.27,3.8-15.53,1.83l-1.66-2.59c-1.66-2.59-2.54-4-3-4.64a2.15,2.15,0,0,0-1.9,1.2,8.41,8.41,0,0,0-1,2.87c-.91,4.53-.6,4.79-3.37,5.58s-10.8,2-13.1,1.17a3.29,3.29,0,0,1-.76-.41l-4.92-3.55C172.85,118.84,172.71,108.28,172.74,105.29Z" style="fill:#f5f5f5"></path><path d="M176.45,121.43l4.92,3.55a3.29,3.29,0,0,0,.76.41l.09,0L181.5,124s-2.66-1.28-3.83-15.12l-4.93-3.57C172.71,108.28,172.85,118.84,176.45,121.43Z" style="fill:#e0e0e0"></path><path d="M199.48,102.94c11.67-1.68,20.53-3.92,21.69-.63s2.57,14.87.52,17.66-14.27,3.8-15.53,1.83-4.62-7.21-4.62-7.21-2-.48-2.94,4-.6,4.79-3.37,5.58-10.8,2-13.1,1.17c-4.33-1.57-4.49-13.35-4.46-16.53S188.8,104.48,199.48,102.94Z" style="fill:#015FC9"></path><path d="M201.54,114.59a1.76,1.76,0,0,0-1.47.56,4.65,4.65,0,0,0-.93,1.35,14.19,14.19,0,0,0-.87,3.12,16.54,16.54,0,0,1-.79,3.08c-.44.93-1.62,1.12-2.62,1.4a51.36,51.36,0,0,1-6.32,1.17c-1.07.13-2.14.23-3.21.28a10.43,10.43,0,0,1-3.2-.16,17.86,17.86,0,0,0,6.44.16,49.89,49.89,0,0,0,6.4-1,13.51,13.51,0,0,0,1.56-.51,2.34,2.34,0,0,0,1.26-1.14,15.93,15.93,0,0,0,.75-3.18,14.69,14.69,0,0,1,.79-3.1C199.7,115.65,200.39,114.54,201.54,114.59Z" style="fill:#fff"></path><path d="M199.48,102.94c3.35-.4,6.68-.92,10-1.42,1.66-.24,3.33-.46,5-.6a14.32,14.32,0,0,1,4.94.22c1.75.33,1.85,2.35,2.24,3.92s.55,3.31.72,5a42.48,42.48,0,0,1,.21,5,10.25,10.25,0,0,1-.92,4.89,10.28,10.28,0,0,0,1.13-4.89,44.94,44.94,0,0,0-.14-5.06c-.15-1.68-.36-3.36-.66-5a21.72,21.72,0,0,0-.58-2.48,2.62,2.62,0,0,0-1.88-1.78,14.84,14.84,0,0,0-5.1-.16c-1.68.16-3.35.41-5,.67Z" style="fill:#fff"></path><path d="M185.22,124a48.86,48.86,0,0,0,9.54-1.37c1.44-.41,1.44-.41,1.89-2.81l.29-1.49c.94-4.63,3.12-5.38,4.34-5.42a2.8,2.8,0,0,1,.65.06l.67.16,4.89,7.64a10.55,10.55,0,0,0,3.92.38c4.57-.13,8.33-1.36,8.92-2.16,1.4-1.9.5-12.56-.75-16.09,0,0-.26-.64-3.24-.55a91.22,91.22,0,0,0-10.25,1.31c-2,.32-4.13.66-6.37,1l-3.2.46c-6.48.9-16.25,2.28-17.19,3.93,0,7.92,1.35,14.06,3.38,14.8a7.88,7.88,0,0,0,2.51.17Z" style="fill:#37474f"></path><path d="M206.09,103.63l.32,0L221,115.65a7.25,7.25,0,0,1-.67,3.31,3.39,3.39,0,0,1-1.32.78l-18.43-15.26C202.5,104.2,204.35,103.91,206.09,103.63Z" style="fill:#455a64"></path><path d="M186.61,106.61l11.11,9.2a12.25,12.25,0,0,0-.78,2.49l-.29,1.49c-.05.28-.1.53-.14.75l-15.26-12.63A39.9,39.9,0,0,1,186.61,106.61Z" style="fill:#455a64"></path><path d="M214,102.48l6.57,5.44c.18,1.39.31,2.87.38,4.3L209.89,103C211.39,102.8,212.79,102.61,214,102.48Z" style="fill:#455a64"></path><path d="M209.62,121.1l-4.05-3.35-3-4.65-.67-.16a2.8,2.8,0,0,0-.65-.06,3.42,3.42,0,0,0-1.23.3l-8.86-7.34c1.4-.22,2.79-.41,4.08-.6l18.91,15.65a26.52,26.52,0,0,1-2.77.23C210.71,121.14,210.12,121.13,209.62,121.1Z" style="fill:#455a64"></path><path d="M179.61,115c-.12-1.15-.2-2.39-.24-3.7l14,11.59c-1,.21-2.2.42-3.5.6Z" style="fill:#455a64"></path><path d="M179.33,109c.94-1.65,10.71-3,17.19-3.93l3.2-.46c2.24-.32,4.37-.66,6.37-1a91.22,91.22,0,0,1,10.25-1.31c3-.09,3.24.54,3.24.55,1.25,3.53,2.15,14.19.75,16.09a4.17,4.17,0,0,1-1.71.93c2.72-1.06,1-9.94.28-12.63s-.63-3.66-16.23-1.75-20.26,2.43-21.63,3.89-1.52,3.74-1.4,5.95A58.82,58.82,0,0,1,179.33,109Z" style="fill:#fff;opacity:0.9"></path><path d="M198.63,104.77l1.09-.16c2.24-.32,4.37-.66,6.37-1a91.22,91.22,0,0,1,10.25-1.31c3-.09,3.24.54,3.24.55,1.25,3.53,2.15,14.19.75,16.09-.59.8-4.35,2-8.92,2.16a10.55,10.55,0,0,1-3.92-.38l-1.29-2c-.57-1.2.84-1.36,1.7-1.35,3,0,4.44.74,6.53-.61,2.72-1.76,1.67-7.32-.42-8.71C209.71,105.19,207.68,103.71,198.63,104.77Z" style="fill:#015FC9;opacity:0.5"></path></g></g></g><g id="freepik--device-1--inject-120"><g id="freepik--Laptop--inject-120"><path d="M271.74,221.35l.08,1.4A4,4,0,0,0,274,226l38.84,19.39a4,4,0,0,0,2,.4,3.89,3.89,0,0,0,1.93-.64l66.53-43.86a3.92,3.92,0,0,0,1.77-3.53l-.05-1-70.34,46.36Z" style="fill:#015FC9"></path><g style="opacity:0.2"><path d="M314.67,243.21l.16,2.62a3.89,3.89,0,0,0,1.93-.64l66.53-43.86a3.92,3.92,0,0,0,1.77-3.53l-.05-1Z"></path></g><path d="M385,196.85l-42.25-21.16a2.33,2.33,0,0,0-2.35.14L272,221a.52.52,0,0,0,0,.9l42.64,21.37Z" style="fill:#f5f5f5"></path><polygon points="314.09 239.77 291.31 228.37 353.52 187.35 376.42 198.68 314.09 239.77" style="fill:#e0e0e0"></polygon><g style="opacity:0.2"><polygon points="301.17 205.06 301.59 205.28 312.75 210.87 331.3 198.64 331.69 198.39 320.1 192.59 301.17 205.06"></polygon></g><polygon points="301.59 205.28 312.75 210.87 331.3 198.64 320.13 193.05 301.59 205.28" style="fill:#e0e0e0"></polygon><path d="M315.82,243.73a4.66,4.66,0,0,0,4-.55l66.24-43.67a4.68,4.68,0,0,0,2.07-3.39L393,150.89a5,5,0,0,0,0-.77,4.67,4.67,0,0,0-1.57-3.23l-68.84,45.38a3.46,3.46,0,0,0-1.53,2.52Z" style="fill:#015FC9"></path><g style="opacity:0.7000000000000001"><path d="M315.82,243.73a4.66,4.66,0,0,0,4-.55l66.24-43.67a4.68,4.68,0,0,0,2.07-3.39L393,150.89a5,5,0,0,0,0-.77,4.67,4.67,0,0,0-1.57-3.23l-68.84,45.38a3.46,3.46,0,0,0-1.53,2.52Z" style="fill:#fff"></path></g><path d="M314.67,243.22l.49.24a6.5,6.5,0,0,0,.66.27l5.24-48.94a3.46,3.46,0,0,1,1.53-2.52l68.84-45.38a5,5,0,0,0-1-.67l-69,45.47a3.5,3.5,0,0,0-1.54,2.51Z" style="fill:#fafafa"></path><path d="M352,200.1c.33-3,3.19-7.19,6.39-9.3s5.53-1.37,5.21,1.66-3.18,7.19-6.39,9.3S351.67,203.13,352,200.1Z" style="fill:#015FC9"></path></g></g><g id="freepik--icons-2--inject-120"><g id="freepik--Twitter--inject-120"><path d="M459.51,71.43,433.26,56.27a9,9,0,0,0-8.16,0l-3.32,1.92a9,9,0,0,0-4.07,7.06V95.57a9,9,0,0,0,4.07,7.06L448,117.79a9,9,0,0,0,8.16,0l3.31-1.92a9,9,0,0,0,4.08-7.06V78.49A9,9,0,0,0,459.51,71.43Z" style="fill:#37474f"></path><path d="M448,78.06,421.78,62.9c-2.25-1.3-4.07-.25-4.07,2.35V95.57a9,9,0,0,0,4.07,7.06L448,117.79c2.25,1.3,4.08.25,4.08-2.35V85.12A9,9,0,0,0,448,78.06Z" style="fill:#455a64"></path><path d="M463.59,108.81a9,9,0,0,1-4.08,7.06l-3.31,1.92a9.14,9.14,0,0,1-7.46.33c1.92.72,3.38-.36,3.38-2.68V85.12a8.43,8.43,0,0,0-1.19-4l11.47-6.62a8.36,8.36,0,0,1,1.19,4Z" style="fill:#263238"></path><path d="M440.65,99.24c1.84-2.12,2.76-5.57,2.63-9.43a4.69,4.69,0,0,0,2.15-1.73,6.12,6.12,0,0,1-2.47-.53,2.67,2.67,0,0,0,1.89-2.09,5.32,5.32,0,0,1-2.74-.18A8.7,8.7,0,0,0,439,81.64c-2.78-1.61-4.83.68-4.2,4.64-3.59-2.31-6.77-6.44-8.9-11.15-1.13,1.93-.59,5.63,1.34,8.46a7.57,7.57,0,0,1-2-1.85,10.79,10.79,0,0,0,3.46,7.71,4.58,4.58,0,0,1-1.95-1,10.12,10.12,0,0,0,4,6.33c-1.82.85-4.11.38-6.39-1.31A21.56,21.56,0,0,0,431,99.85c4.27,2.46,7.55,1.8,9.64-.61" style="fill:#fff"></path></g><g id="freepik--Facebook--inject-120"><path d="M459.51,140.18,433.26,125a9,9,0,0,0-8.16,0l-3.32,1.92a9,9,0,0,0-4.07,7.06v30.32a9,9,0,0,0,4.07,7.06L448,186.53a9,9,0,0,0,8.16,0l3.31-1.91a9,9,0,0,0,4.08-7.06V147.23A9,9,0,0,0,459.51,140.18Z" style="fill:#015FC9"></path><path d="M459.51,140.18,433.26,125a9,9,0,0,0-8.16,0l-3.32,1.92a9,9,0,0,0-4.07,7.06v30.32a9,9,0,0,0,4.07,7.06L448,186.53a9,9,0,0,0,8.16,0l3.31-1.91a9,9,0,0,0,4.08-7.06V147.23A9,9,0,0,0,459.51,140.18Z" style="fill:#fff;opacity:0.30000000000000004"></path><path d="M417.71,134c0-2.6,1.82-3.65,4.07-2.35L448,146.8a9,9,0,0,1,4.08,7.06v30.32c0,2.6-1.83,3.65-4.08,2.35l-26.26-15.16a9,9,0,0,1-4.07-7.06Z" style="fill:#015FC9"></path><path d="M463.59,177.56a9,9,0,0,1-4.08,7.06l-3.31,1.91a9.1,9.1,0,0,1-7.46.33c1.92.73,3.38-.36,3.38-2.68V153.86a8.43,8.43,0,0,0-1.19-4l11.47-6.62a8.42,8.42,0,0,1,1.19,4Z" style="fill:#015FC9"></path><path d="M463.59,177.56a9,9,0,0,1-4.08,7.06l-3.31,1.91a9.1,9.1,0,0,1-7.46.33c1.92.73,3.38-.36,3.38-2.68V153.86a8.43,8.43,0,0,0-1.19-4l11.47-6.62a8.42,8.42,0,0,1,1.19,4Z" style="opacity:0.30000000000000004"></path><path d="M432.17,171.41l4.38,2.53V159.32l3.06,1.76.32-4.71-3.38-2v-2.79c0-1.15.18-1.51,1-1l2.37,1.37v-5.08l-3-1.75c-3.26-1.88-4.73-.82-4.73,2.85v3.9l-2.28-1.32v5l2.28,1.32Z" style="fill:#fff"></path></g></g><g id="freepik--icons-1--inject-120"><g id="freepik--Instagram--inject-120"><path d="M25.23,308.58l26.26-15.16a9,9,0,0,1,8.15,0L63,295.34A9,9,0,0,1,67,302.4v30.32A9,9,0,0,1,63,339.78L36.7,354.94a9,9,0,0,1-8.15,0L25.23,353A9,9,0,0,1,21.16,346V315.64A9,9,0,0,1,25.23,308.58Z" style="fill:#015FC9"></path><path d="M25.23,308.58l26.26-15.16a9,9,0,0,1,8.15,0L63,295.34A9,9,0,0,1,67,302.4v30.32A9,9,0,0,1,63,339.78L36.7,354.94a9,9,0,0,1-8.15,0L25.23,353A9,9,0,0,1,21.16,346V315.64A9,9,0,0,1,25.23,308.58Z" style="fill:#fff;opacity:0.30000000000000004"></path><path d="M67,302.4c0-2.6-1.83-3.66-4.08-2.36L36.7,315.2a9,9,0,0,0-4.07,7.06v30.32c0,2.6,1.82,3.66,4.07,2.36L63,339.78A9,9,0,0,0,67,332.72Z" style="fill:#015FC9"></path><path d="M21.16,346A9,9,0,0,0,25.23,353l3.32,1.92a9.17,9.17,0,0,0,7.46.33c-1.92.72-3.38-.36-3.38-2.69V322.26a8.25,8.25,0,0,1,1.19-4l-11.47-6.63a8.32,8.32,0,0,0-1.19,4Z" style="fill:#015FC9"></path><path d="M21.16,346A9,9,0,0,0,25.23,353l3.32,1.92a9.17,9.17,0,0,0,7.46.33c-1.92.72-3.38-.36-3.38-2.69V322.26a8.25,8.25,0,0,1,1.19-4l-11.47-6.63a8.32,8.32,0,0,0-1.19,4Z" style="opacity:0.30000000000000004"></path><path d="M49.83,317c2.69-1.55,3-1.72,4.07-2.27a4.55,4.55,0,0,1,1.87-.61,1.63,1.63,0,0,1,1.16.33,2.17,2.17,0,0,1,.75,1.11,7.43,7.43,0,0,1,.35,2.29c0,1.39,0,1.81,0,5.39s0,4,0,5.46a12.38,12.38,0,0,1-.35,2.69,8.49,8.49,0,0,1-.75,2A7.86,7.86,0,0,1,55.77,335a9,9,0,0,1-1.87,1.54c-1.06.68-1.38.87-4.07,2.42s-3,1.73-4.06,2.27a4.51,4.51,0,0,1-1.87.62,1.57,1.57,0,0,1-1.16-.34,2.1,2.1,0,0,1-.75-1.1,7.49,7.49,0,0,1-.35-2.29c0-1.39-.06-1.81-.06-5.39s0-4,.06-5.46a12.38,12.38,0,0,1,.35-2.69,8.32,8.32,0,0,1,.75-2A7.29,7.29,0,0,1,43.9,321a8.78,8.78,0,0,1,1.87-1.54c1.06-.68,1.38-.88,4.06-2.43m0-2.42c-2.73,1.58-3.07,1.8-4.15,2.48a11.77,11.77,0,0,0-4.22,4.61,13.37,13.37,0,0,0-1.16,3,16.24,16.24,0,0,0-.47,3.53c0,1.46-.06,1.92-.06,5.56s0,4.1.06,5.5a9.82,9.82,0,0,0,.47,3A3.49,3.49,0,0,0,41.46,344a2.52,2.52,0,0,0,1.78.51,5.91,5.91,0,0,0,2.44-.78c1.08-.56,1.42-.74,4.15-2.32s3.08-1.79,4.15-2.47a12,12,0,0,0,2.45-2,11.67,11.67,0,0,0,1.78-2.58,13.13,13.13,0,0,0,1.16-3,16.24,16.24,0,0,0,.47-3.53c0-1.46.06-1.92.06-5.57s0-4.09-.06-5.49a9.82,9.82,0,0,0-.47-3A3.4,3.4,0,0,0,58.21,312a2.53,2.53,0,0,0-1.78-.52,6.15,6.15,0,0,0-2.45.79c-1.07.55-1.41.74-4.15,2.31" style="fill:#fff"></path><path d="M49.83,321.1c-2.85,1.65-5.16,6.07-5.16,9.88s2.31,5.55,5.16,3.9S55,328.82,55,325s-2.31-5.56-5.17-3.91m0,11.37c-1.85,1.07-3.35-.07-3.35-2.54a8,8,0,0,1,3.35-6.41c1.86-1.07,3.36.07,3.36,2.54a8,8,0,0,1-3.36,6.41" style="fill:#fff"></path><path d="M56.53,317.31a2.9,2.9,0,0,1-1.21,2.31c-.66.38-1.21,0-1.21-.92a2.89,2.89,0,0,1,1.21-2.3c.67-.39,1.21,0,1.21.91" style="fill:#fff"></path></g><g id="freepik--Messages--inject-120"><path d="M25.23,377.34l26.26-15.16a9,9,0,0,1,8.15,0L63,364.09A9,9,0,0,1,67,371.15v30.32A9,9,0,0,1,63,408.53L36.7,423.69a9,9,0,0,1-8.15,0l-3.32-1.91a9,9,0,0,1-4.07-7.06V384.4A9,9,0,0,1,25.23,377.34Z" style="fill:#37474f"></path><path d="M67,371.15c0-2.6-1.83-3.65-4.08-2.35L36.7,384A9,9,0,0,0,32.63,391v30.32c0,2.6,1.82,3.65,4.07,2.35L63,408.53A9,9,0,0,0,67,401.47Z" style="fill:#455a64"></path><path d="M21.16,414.72a9,9,0,0,0,4.07,7.06l3.32,1.91A9.09,9.09,0,0,0,36,424c-1.92.73-3.38-.35-3.38-2.68V391a8.32,8.32,0,0,1,1.19-4l-11.47-6.62a8.32,8.32,0,0,0-1.19,4Z" style="fill:#015FC9"></path><path d="M21.16,414.72a9,9,0,0,0,4.07,7.06l3.32,1.91A9.09,9.09,0,0,0,36,424c-1.92.73-3.38-.35-3.38-2.68V391a8.32,8.32,0,0,1,1.19-4l-11.47-6.62a8.32,8.32,0,0,0-1.19,4Z" style="fill:#263238"></path><g id="freepik--messages--inject-120"><path d="M56,383.56c-1.76-.95-4-.78-6.37.49-5,2.69-9,9.59-9,15.39,0,4.07,1.76,6.71,4.73,7.15a9.27,9.27,0,0,1-1,4.29.36.36,0,0,0,.09.46.42.42,0,0,0,.28.1.43.43,0,0,0,.22-.06,12.92,12.92,0,0,0,5.2-6.12c4.91-2.73,8.87-9.57,8.87-15.32C59,386.93,57.93,384.6,56,383.56Z" style="fill:#fafafa"></path></g></g></g><g id="freepik--speech-bubble-2--inject-120"><g id="freepik--speech-bubble--inject-120"><g id="freepik--speech-bubble--inject-120"><path d="M354,148.94l-3.72-7,3-8.65V128l-9.16,5.28v5.29l3.94,6.83a.54.54,0,0,0,.27.23h0Z" style="fill:#015FC9"></path><path d="M354,148.94l-3.72-7,3-8.65V128l-9.16,5.28v5.29l3.94,6.83a.54.54,0,0,0,.27.23h0Z" style="opacity:0.2"></path><path d="M386.29,91a6.07,6.07,0,0,0-2.74-4.76l-2.24-1.29a6,6,0,0,0-5.49,0L316.2,119.35a6.08,6.08,0,0,0-2.75,4.76V150.9a6.08,6.08,0,0,0,2.75,4.76l2.23,1.29a6.12,6.12,0,0,0,5.5,0l26-15,3.93,6.8a.58.58,0,0,0,1.06-.1l4.15-12,24.51-14.15a6.06,6.06,0,0,0,2.74-4.75Z" style="fill:#015FC9"></path><path d="M313.45,150.9a6.08,6.08,0,0,0,2.75,4.76l2.23,1.29a6.16,6.16,0,0,0,5,.22c-1.29.49-2.28-.24-2.28-1.81V128.57a5.65,5.65,0,0,1,.81-2.71l-7.73-4.46a5.59,5.59,0,0,0-.81,2.71Z" style="opacity:0.2"></path><path d="M386.2,90.17c-.32-1.17-1.38-1.54-2.65-.81l-59.62,34.46a5.41,5.41,0,0,0-1.94,2.05l-7.73-4.46a5.49,5.49,0,0,1,1.94-2L375.81,84.9a6.12,6.12,0,0,1,5.5,0l2.24,1.29A6.09,6.09,0,0,1,386.2,90.17Z" style="fill:#fff;opacity:0.24"></path></g><path d="M336.31,138.32a.27.27,0,0,1,.35,0,.62.62,0,0,1,.15.46v3a1.45,1.45,0,0,1-.15.63.92.92,0,0,1-.35.43l-8.55,4.93a.27.27,0,0,1-.35,0,.62.62,0,0,1-.15-.46V129a1.41,1.41,0,0,1,.15-.62,1,1,0,0,1,.35-.43l2.42-1.4a.26.26,0,0,1,.35,0,.58.58,0,0,1,.15.45v14.58Z" style="fill:#fff"></path><path d="M339.82,140.84a.27.27,0,0,1-.35,0,.62.62,0,0,1-.15-.46V122a1.41,1.41,0,0,1,.15-.62.92.92,0,0,1,.35-.43l2.42-1.4a.26.26,0,0,1,.35,0,.62.62,0,0,1,.14.45v18.36a1.6,1.6,0,0,1-.14.63,1,1,0,0,1-.35.43Z" style="fill:#fff"></path><path d="M350.16,134.87c-.48.28-.81.09-1-.57l-3.77-15.59c0-.12,0-.19,0-.23a.37.37,0,0,1,0-.11,1.11,1.11,0,0,1,.12-.5.74.74,0,0,1,.28-.35l2.33-1.35c.24-.14.42-.16.52-.06a.65.65,0,0,1,.2.36l2.56,11,2.57-14a2.75,2.75,0,0,1,.19-.58,1.25,1.25,0,0,1,.53-.54L357,111a.22.22,0,0,1,.28,0,.52.52,0,0,1,.12.38.57.57,0,0,1,0,.12s0,.13,0,.28l-3.77,19.94a2.39,2.39,0,0,1-1,1.7Z" style="fill:#fff"></path><path d="M369.26,119.3a.27.27,0,0,1,.35,0,.61.61,0,0,1,.15.45v3a1.38,1.38,0,0,1-.15.62.92.92,0,0,1-.35.43l-8.75,5a.26.26,0,0,1-.35,0,.6.6,0,0,1-.15-.45V110.05a1.45,1.45,0,0,1,.15-.62,1,1,0,0,1,.35-.43l8.6-5a.27.27,0,0,1,.36,0,.62.62,0,0,1,.14.45v3a1.6,1.6,0,0,1-.14.63.93.93,0,0,1-.36.43l-5.68,3.28v3.07l5.28-3.05a.27.27,0,0,1,.35,0,.6.6,0,0,1,.15.45v3a1.41,1.41,0,0,1-.15.62,1,1,0,0,1-.35.43l-5.28,3v3.18Z" style="fill:#fff"></path><path d="M377.09,104.71c2.27-1.32,4.11-.25,4.11,2.37a9.12,9.12,0,0,1-4.11,7.14c-2.28,1.31-4.12.24-4.12-2.38A9.07,9.07,0,0,1,377.09,104.71Z" style="fill:#fff"></path></g></g><g id="freepik--speech-bubble-1--inject-120"><g id="freepik--speech-bubble--inject-120"><g id="freepik--speech-bubble--inject-120"><path d="M194.88,64.78l-2.63-4.94,2.12-6.11V50l-6.48,3.74v3.74l2.79,4.82a.39.39,0,0,0,.19.17h0Z" style="fill:#015FC9"></path><path d="M194.88,64.78l-2.63-4.94,2.12-6.11V50l-6.48,3.74v3.74l2.79,4.82a.39.39,0,0,0,.19.17h0Z" style="opacity:0.2"></path><path d="M210.35,20.27a4.31,4.31,0,0,0-1.94-3.37L206.83,16a4.3,4.3,0,0,0-3.89,0L178.7,30a4.31,4.31,0,0,0-1.94,3.37V60.05a4.27,4.27,0,0,0,1.94,3.36l1.58.92a4.28,4.28,0,0,0,3.88,0l7.8-4.51,2.78,4.81a.41.41,0,0,0,.75-.07l2.94-8.47,10-5.79a4.27,4.27,0,0,0,1.94-3.36Z" style="fill:#015FC9"></path><path d="M176.76,60.05a4.27,4.27,0,0,0,1.94,3.36l1.58.92a4.3,4.3,0,0,0,3.55.15c-.91.35-1.61-.17-1.61-1.27V36.53a4,4,0,0,1,.57-1.91l-5.46-3.16a3.9,3.9,0,0,0-.57,1.92Z" style="opacity:0.2"></path><path d="M210.28,19.71c-.22-.82-1-1.08-1.87-.57l-24.25,14a3.92,3.92,0,0,0-1.37,1.45l-5.46-3.15A3.92,3.92,0,0,1,178.7,30l24.24-14a4.34,4.34,0,0,1,3.88,0l1.59.92A4.28,4.28,0,0,1,210.28,19.71Z" style="fill:#fff;opacity:0.30000000000000004"></path></g><path id="freepik--Heart--inject-120" d="M196,51.79c-8.34-2-9-8.91-6.56-13.87,2.19-4.44,6.16-4.61,6.59-.3.46-4.82,4.44-9.2,6.61-7.26C205,32.54,204.33,40.21,196,51.79Z" style="fill:#fff"></path></g></g><g id="freepik--Globe--inject-120"><g id="freepik--global-icon--inject-120"><path id="freepik--online-icon--inject-120" d="M423.24,206.68c-5.7-3.29-13-2.74-20.42,1.56-16.6,9.59-30.11,35.35-30.11,57.43,0,11.84,3.93,20.89,10.76,24.84a16.08,16.08,0,0,0,8.13,2.13A24.89,24.89,0,0,0,403.9,289c16.6-9.58,30.1-35.34,30.1-57.42C434,219.69,430.08,210.63,423.24,206.68ZM375,263.75c.38-10.93,4-22.59,9.62-32.55a16,16,0,0,0,4.22,1.33,78.46,78.46,0,0,0-5.25,26.26Zm29.49-14.53L421,239.68a77.39,77.39,0,0,1-5.29,24.77,23.47,23.47,0,0,0-11.24,2.81Zm0-2.49v-18a49.54,49.54,0,0,0,11.87-10.4c2.93,4.65,4.61,11.1,4.69,18.8Zm0-20.53V210.37a15.74,15.74,0,0,1,10.6,6.17A49,49,0,0,1,404.44,226.2Zm-2.16,1.31a22.65,22.65,0,0,1-10.4,3.07,83.05,83.05,0,0,1,10.4-18.31ZM391,232.75l.58,0a23.83,23.83,0,0,0,10.68-2.86V248l-16.55,9.56A77.39,77.39,0,0,1,391,232.75Zm11.26,17.72v18a49.26,49.26,0,0,0-11.89,10.41c-2.93-4.66-4.61-11.11-4.69-18.81Zm0,20.53v15.84a15.74,15.74,0,0,1-10.61-6.17A48.66,48.66,0,0,1,402.28,271Zm2.16-1.31a22.34,22.34,0,0,1,10.38-3.07,83.55,83.55,0,0,1-10.38,18.3Zm18.72-31.28,8.61-5c-.38,10.94-4,22.61-9.64,32.57a15.6,15.6,0,0,0-4.22-1.33A78.56,78.56,0,0,0,423.16,238.41Zm8.66-7.49-8.69,5c-.26-7.92-2.16-14.56-5.37-19.36a73,73,0,0,0,5.16-7.48C428.47,212.82,431.69,220.66,431.82,230.92ZM421.06,208a71.22,71.22,0,0,1-4.64,6.77,17.92,17.92,0,0,0-9.58-6.16,20.69,20.69,0,0,1,8.27-1.9A14.2,14.2,0,0,1,421.06,208Zm-22.75,6.07a87.08,87.08,0,0,0-8.69,16.37,13.52,13.52,0,0,1-4-1.14A60.9,60.9,0,0,1,398.31,214.08Zm-23.41,52.2,8.67-5c.26,7.92,2.16,14.56,5.38,19.36a71.78,71.78,0,0,0-5.16,7.47C378.24,284.38,375,276.54,374.9,266.28Zm10.77,22.89a68.74,68.74,0,0,1,4.61-6.74,17.92,17.92,0,0,0,9.55,6.15C394.64,290.84,389.74,291,385.67,289.17Zm22.71-6a87.11,87.11,0,0,0,8.71-16.4,13.85,13.85,0,0,1,4,1.15A60.86,60.86,0,0,1,408.38,283.14Z" style="fill:#e0e0e0"></path></g></g><g id="freepik--Contacts--inject-120"><g id="freepik--contacts--inject-120"><path d="M252.44,53.18c2.92-1.68,5.29-6.69,5.29-11.18s-2.37-6.77-5.29-5.08-5.28,6.69-5.28,11.18S249.53,54.87,252.44,53.18Zm8.56,2c-.23-2.16-1.5-3.1-3-2.24l-11.1,6.41c-1.5.87-2.78,3.29-3,5.71l-.51,5.42c-.13,1.27.47,2,1.26,1.55l14-8.1.23-2.44a12,12,0,0,1,2.18-5.81Z" style="fill:#e0e0e0"></path><path d="M269.52,50c2.92-1.69,5.29-6.69,5.29-11.18s-2.37-6.77-5.29-5.09-5.28,6.69-5.28,11.19S266.61,51.68,269.52,50Zm9.08,6.82L278.08,52c-.23-2.15-1.5-3.1-3-2.23L264,56.18c-1.5.87-2.78,3.29-3,5.7l-.52,5.43c-.12,1.26.48,2,1.27,1.54l15.63-9A3.45,3.45,0,0,0,278.6,56.82Z" style="fill:#ebebeb"></path></g></g><g id="freepik--Notification--inject-120"><g id="freepik--notification--inject-120"><g id="freepik--Mails--inject-120"><g id="freepik--Letter--inject-120"><path d="M415.82,252.34l40.59-23.43a.85.85,0,0,1,1,0c.24.2,3.44,1.91,3.7,2.09a1.31,1.31,0,0,1,.42,1.1v36.52a3.34,3.34,0,0,1-1.4,2.68L453,275.42l-38.17-22A2.72,2.72,0,0,1,415.82,252.34Z" style="fill:#015FC9"></path><path d="M415.82,252.34l40.59-23.43a.85.85,0,0,1,1,0c.24.2,3.44,1.91,3.7,2.09a1.31,1.31,0,0,1,.42,1.1v36.52a3.34,3.34,0,0,1-1.4,2.68L453,275.42l-38.17-22A2.72,2.72,0,0,1,415.82,252.34Z" style="fill:#fff;opacity:0.4"></path><path d="M418.61,294.79c-.28-.18-3.5-2-3.75-2.13a1.26,1.26,0,0,1-.45-1.11V255a3.46,3.46,0,0,1,.45-1.61l38.17,22-33.47,19.32A.89.89,0,0,1,418.61,294.79Z" style="fill:#015FC9"></path><path d="M418.61,294.79c-.28-.18-3.5-2-3.75-2.13a1.26,1.26,0,0,1-.45-1.11V255a3.46,3.46,0,0,1,.45-1.61l38.17,22-33.47,19.32A.89.89,0,0,1,418.61,294.79Z" style="opacity:0.2"></path><path d="M419.56,294.74l40.59-23.44a3.34,3.34,0,0,0,1.4-2.68V232.1c0-1-.62-1.51-1.4-1.06l-40.59,23.43a3.38,3.38,0,0,0-1.4,2.68v36.53C418.16,294.71,418.79,295.18,419.56,294.74Z" style="fill:#015FC9"></path><path d="M418.16,293.68V293l16.78-27.81L418.37,256a2.08,2.08,0,0,1,.13-.3l20.64,8.6c.44.18,1-.14,1.44-.83l20.61-32.39a.81.81,0,0,1,.12.14l-16.54,28.28,16.78,8.43v.72a3.61,3.61,0,0,1-.42,1.65l-17.21-9.34-2.44,4.16c-1,1.66-2.28,2.42-3.25,1.88l-2.44-1.35-17.18,29.17A1.3,1.3,0,0,1,418.16,293.68Z" style="opacity:0.2"></path></g></g><g id="freepik--notification--inject-120"><path d="M472.13,220.7l-3.88-2.25h0l0,0h0c-1.69-1-4-.81-6.59.67-5.17,3-9.37,10.26-9.37,16.24,0,3,1.05,5.08,2.74,6.06h0l3.53,2,.83-1.38a9.69,9.69,0,0,0,2.69-1.05c5.17-3,9.37-10.26,9.37-16.23a10.38,10.38,0,0,0-.29-2.4Z" style="fill:#37474f"></path><path d="M452.6,232.19a15,15,0,0,0-.35,3.15c0,3,1.05,5.08,2.74,6.06h0l3.53,2,.83-1.38a9.69,9.69,0,0,0,2.69-1.05,14.94,14.94,0,0,0,2.55-1.88Z" style="fill:#263238"></path><path d="M465.31,221.23c-5.17,3-9.37,10.26-9.37,16.23s4.2,8.4,9.37,5.41,9.37-10.25,9.38-16.23S470.49,218.24,465.31,221.23Z" style="fill:#455a64"></path><path d="M469,229.55v-2.3c0-2.62-1.6-3.82-3.56-2.69h0c-2,1.14-3.56,4.18-3.56,6.8v2.06a8.09,8.09,0,0,1-1.2,4h0a2.21,2.21,0,0,0-.29,1h0c0,.66.4,1,.89.68l8.31-4.8a2.12,2.12,0,0,0,.9-1.71h0a.84.84,0,0,0-.26-.69h0A2.43,2.43,0,0,1,469,229.55Z" style="fill:#fff"></path><path d="M467.17,236.48a4.12,4.12,0,0,1-1.71,3.27c-.95.54-1.71,0-1.71-1.29Z" style="fill:#fff"></path></g></g></g><g id="freepik--Window--inject-120"><g id="freepik--window--inject-120"><path d="M126.43,108.36v75.27a5.45,5.45,0,0,1-2.47,4.28L36.75,238.27a1.5,1.5,0,0,1-.82.24,1.75,1.75,0,0,1-.32,0,.9.9,0,0,1-.21-.08l-.22-.11a2.22,2.22,0,0,1-.65-.83,3.08,3.08,0,0,1-.26-1.25V161.53a5.48,5.48,0,0,1,2.48-4.28L124,106.93a1.78,1.78,0,0,1,1.66-.21.72.72,0,0,1,.21.12h0a.87.87,0,0,1,.16.17.36.36,0,0,1,.08.09.57.57,0,0,1,.08.13,1.09,1.09,0,0,1,.14.31.79.79,0,0,1,.06.22s0,0,0,0a1.57,1.57,0,0,1,0,.23C126.43,108.15,126.43,108.25,126.43,108.36Z" style="fill:#fafafa"></path><path d="M125.06,107.47a.58.58,0,0,1,.19,0l0,0h0l.06.07h0l.06.08h0l.09.27v0l0,0h0v.05a1.94,1.94,0,0,1,0,.24v75.27a4.59,4.59,0,0,1-2,3.52L36.31,237.51a.73.73,0,0,1-.38.12h0l-.13,0,0,0h0l-.1-.05a1.78,1.78,0,0,1-.32-.48,2,2,0,0,1-.17-.85V161.53a4.62,4.62,0,0,1,2-3.52l87.2-50.32a1.41,1.41,0,0,1,.67-.22m0-.88a2.21,2.21,0,0,0-1.1.34L36.75,157.25a5.48,5.48,0,0,0-2.48,4.28V236.2a3.08,3.08,0,0,0,.26,1.25,2.22,2.22,0,0,0,.65.83l.22.11a.9.9,0,0,0,.21.08,1.75,1.75,0,0,0,.32,0h0a1.57,1.57,0,0,0,.79-.24L124,187.91a5.45,5.45,0,0,0,2.47-4.28V108.36c0-.11,0-.21,0-.31a1.57,1.57,0,0,0,0-.23s0,0,0,0a.79.79,0,0,0-.06-.22,1.09,1.09,0,0,0-.14-.31.57.57,0,0,0-.08-.13A.36.36,0,0,0,126,107a.87.87,0,0,0-.16-.17h0a.72.72,0,0,0-.21-.12,1.32,1.32,0,0,0-.56-.13Z" style="fill:#e0e0e0"></path><path d="M125.62,106.72a1.78,1.78,0,0,0-1.66.21L36.75,157.25a5.48,5.48,0,0,0-2.48,4.28v8.09L27.92,166v-8a5.44,5.44,0,0,1,2.47-4.28l87.22-50.32a1.71,1.71,0,0,1,1.79-.14C119.85,103.45,125.09,106.44,125.62,106.72Z" style="fill:#015FC9"></path><path d="M126.43,108.34c0-1.56-1.11-2.19-2.47-1.41L36.75,157.25a5.47,5.47,0,0,0-2.48,4.28v8.1l92.15-53.17Z" style="fill:#015FC9"></path><g style="opacity:0.30000000000000004"><path d="M124,106.93,36.75,157.25A5,5,0,0,0,35,159.08l-6.34-3.63a4.89,4.89,0,0,1,1.72-1.8l87.21-50.32a1.76,1.76,0,0,1,1.8-.15c.44.28,5.69,3.25,6.21,3.53A1.76,1.76,0,0,0,124,106.93Z" style="fill:#fff"></path></g><path d="M27.92,166v-8a5.13,5.13,0,0,1,.75-2.48L35,159.08a5,5,0,0,0-.74,2.46v8.09Z" style="opacity:0.15"></path><path d="M112.39,117a3.69,3.69,0,0,0-1.4,3c0,1.19.63,1.79,1.4,1.34a3.69,3.69,0,0,0,1.4-3C113.79,117.18,113.16,116.58,112.39,117Z" style="fill:#fafafa"></path><path d="M117.42,114.12a3.68,3.68,0,0,0-1.39,3c0,1.18.62,1.79,1.39,1.34a3.66,3.66,0,0,0,1.4-3C118.82,114.27,118.2,113.67,117.42,114.12Z" style="fill:#fafafa"></path><path d="M122.46,111.21a3.66,3.66,0,0,0-1.4,3c0,1.18.62,1.79,1.4,1.34a3.68,3.68,0,0,0,1.39-3C123.85,111.36,123.23,110.76,122.46,111.21Z" style="fill:#fafafa"></path><path d="M35.18,238.28l-.31-.18c-.22-.14-5.86-3.37-5.91-3.4a2.17,2.17,0,0,1-.76-.84,3.23,3.23,0,0,1-.28-1.31V166l6.35,3.66V236.2a3.46,3.46,0,0,0,.26,1.25A2.3,2.3,0,0,0,35.18,238.28Z" style="fill:#e0e0e0"></path><path d="M41.22,211.3l24.92-14.39a1.9,1.9,0,0,0,.89-1.47c0-.53-.4-.73-.89-.45L41.22,209.37a1.9,1.9,0,0,0-.89,1.48C40.34,211.38,40.73,211.58,41.22,211.3Zm0,7.7L89,191.45a1.93,1.93,0,0,0,.89-1.48h0c0-.53-.4-.74-.89-.45L41.22,217.07a1.9,1.9,0,0,0-.89,1.47h0C40.34,219.08,40.73,219.28,41.22,219Zm0-23.09,24.25-14a1.9,1.9,0,0,0,.89-1.48c0-.53-.4-.73-.89-.45L41.22,194a1.93,1.93,0,0,0-.89,1.48C40.34,196,40.73,196.19,41.22,195.91Zm0,7.69,40.42-23.27a1.93,1.93,0,0,0,.89-1.48c0-.53-.4-.73-.89-.45L41.22,201.67a1.9,1.9,0,0,0-.89,1.48C40.34,203.68,40.73,203.88,41.22,203.6Zm0-29.22L81.64,151a1.9,1.9,0,0,0,.89-1.48c0-.53-.4-.73-.89-.45L41.22,172.45a1.93,1.93,0,0,0-.89,1.48C40.34,174.46,40.73,174.66,41.22,174.38ZM49.45,220l-8.23,4.75a1.91,1.91,0,0,0-.89,1.48c0,.53.4.73.89.45l8.23-4.76a1.9,1.9,0,0,0,.89-1.47C50.34,219.93,49.94,219.73,49.45,220Zm32.19-49.34L68.92,178a1.93,1.93,0,0,0-.89,1.48c0,.53.4.73.89.45l12.72-7.31a1.9,1.9,0,0,0,.89-1.47C82.53,170.6,82.13,170.4,81.64,170.68Zm0-7.72L41.22,186.33a1.9,1.9,0,0,0-.89,1.48c0,.53.4.73.89.45l40.42-23.37a1.93,1.93,0,0,0,.89-1.48C82.53,162.88,82.13,162.68,81.64,163Zm0-6.94L41.22,179.39a1.93,1.93,0,0,0-.89,1.48c0,.53.4.73.89.45L81.64,158a1.91,1.91,0,0,0,.89-1.48C82.53,155.94,82.13,155.74,81.64,156Zm37.84,8.15L71.25,192a1.9,1.9,0,0,0-.88,1.48c0,.53.39.73.88.45l48.23-27.87a1.93,1.93,0,0,0,.89-1.48C120.37,164.09,120,163.89,119.48,164.17Zm0,15.45L54.56,217.07a1.9,1.9,0,0,0-.89,1.47c0,.54.4.74.89.45l64.92-37.45a1.9,1.9,0,0,0,.89-1.47C120.37,179.53,120,179.33,119.48,179.62Zm0-7.71L94.09,186.57a1.92,1.92,0,0,0-.88,1.48c0,.53.39.73.88.45l25.39-14.67a1.9,1.9,0,0,0,.89-1.47C120.37,171.82,120,171.62,119.48,171.91Z" style="opacity:0.2"></path><polygon points="119.56 126.6 86.78 145.58 86.78 178.27 119.56 159.35 119.56 126.6" style="fill:#015FC9"></polygon><polygon points="119.56 126.6 86.78 145.58 86.78 178.27 119.56 159.35 119.56 126.6" style="fill:#fff;opacity:0.6000000000000001"></polygon><path d="M106,144.12a6,6,0,0,1-2.5,4.78c-1.38.8-2.5-.05-2.5-1.89a6,6,0,0,1,2.5-4.79C104.91,141.43,106,142.27,106,144.12Z" style="fill:#fff"></path><polygon points="88.89 174.51 88.89 165.11 97.1 152.93 107.08 156.86 104.29 154.06 109.35 148.4 117.44 150.53 117.44 158.03 88.89 174.51" style="fill:#fff"></polygon></g></g><g id="freepik--Image--inject-120"><g id="freepik--image--inject-120"><path d="M304.61,63.2,263.4,87a2.13,2.13,0,0,0-1,1.67v39.25a2.11,2.11,0,0,0,1,1.67l1.59.92a2.16,2.16,0,0,0,1.92,0l41.21-23.8a2.11,2.11,0,0,0,1-1.67V65.78a2.13,2.13,0,0,0-1-1.67l-1.59-.91A2.1,2.1,0,0,0,304.61,63.2Z" style="fill:#e0e0e0"></path><path d="M309,65.49c-.12-.4-.49-.53-.93-.27L266.92,89a1.92,1.92,0,0,0-.69.72l-3.5-2a1.94,1.94,0,0,1,.67-.72L304.61,63.2a2.12,2.12,0,0,1,1.93,0l1.57.91A2.11,2.11,0,0,1,309,65.49Z" style="fill:#f0f0f0"></path><path d="M308.12,65.22,266.91,89a2.11,2.11,0,0,0-1,1.66v39.26c0,.62.43.86,1,.56l41.21-23.8a2.11,2.11,0,0,0,1-1.67V65.78C309.08,65.16,308.65,64.91,308.12,65.22Z" style="fill:#fafafa"></path><path d="M308.14,66.3V105a1.26,1.26,0,0,1-.49.86l-40.76,23.53V90.68a1.23,1.23,0,0,1,.49-.85L308.14,66.3m.41-1.21a.85.85,0,0,0-.43.13L266.91,89a2.11,2.11,0,0,0-1,1.66v39.26c0,.44.22.69.53.69a.85.85,0,0,0,.43-.13l41.21-23.8a2.11,2.11,0,0,0,1-1.67V65.78c0-.44-.22-.69-.53-.69Z" style="fill:#e0e0e0"></path><path d="M296.78,90.12l-6.22,11,4.37,5.66L280.5,94.35l-12.45,26.94v4.88c0,.6.43.85.95.54l37.21-21.48a2.08,2.08,0,0,0,1-1.64v-4Zm3-8.44a4.11,4.11,0,0,0,1.86-3.23c0-1.19-.83-1.67-1.86-1.07a4.12,4.12,0,0,0-1.87,3.23C297.9,81.8,298.74,82.28,299.77,81.68Z" style="fill:#e0e0e0"></path></g></g><g id="freepik--Video--inject-120"><g id="freepik--video--inject-120"><path d="M365.84,22.09l-41.21,23.8a2.11,2.11,0,0,0-1,1.67V86.81a2.11,2.11,0,0,0,1,1.67l1.58.91a2.12,2.12,0,0,0,1.93,0l41.2-23.79a2.13,2.13,0,0,0,1-1.67V24.67a2.11,2.11,0,0,0-1-1.66l-1.59-.92A2.1,2.1,0,0,0,365.84,22.09Z" style="fill:#e0e0e0"></path><path d="M370.27,24.39c-.12-.4-.49-.53-.92-.27l-41.2,23.8a1.79,1.79,0,0,0-.68.71l-3.51-2a1.87,1.87,0,0,1,.67-.72l41.21-23.8a2.18,2.18,0,0,1,1.93,0l1.58.92A2.1,2.1,0,0,1,370.27,24.39Z" style="fill:#f0f0f0"></path><path d="M369.35,24.12l-41.2,23.79a2.13,2.13,0,0,0-1,1.67V88.84c0,.61.43.86,1,.55l41.2-23.79a2.13,2.13,0,0,0,1-1.67V24.67C370.31,24.06,369.88,23.81,369.35,24.12Z" style="fill:#fafafa"></path><path d="M369.37,25.2V63.93a1.19,1.19,0,0,1-.49.85L328.12,88.32V49.58a1.24,1.24,0,0,1,.5-.85L369.37,25.2m.41-1.21a.85.85,0,0,0-.43.13l-41.2,23.79a2.13,2.13,0,0,0-1,1.67V88.84c0,.43.22.69.54.69a.93.93,0,0,0,.43-.14l41.2-23.79a2.13,2.13,0,0,0,1-1.67V24.67c0-.43-.22-.68-.53-.68Z" style="fill:#e0e0e0"></path><path d="M345.18,71.52a5.85,5.85,0,0,1-3-.78c-2.48-1.43-3.89-4.67-3.89-8.89A24.46,24.46,0,0,1,341.64,50,21.39,21.39,0,0,1,344,46.65h0A15.65,15.65,0,0,1,348,43.29c2.65-1.53,5.25-1.71,7.33-.52,2.47,1.43,3.89,4.67,3.89,8.89a24.54,24.54,0,0,1-3.32,11.88,18.28,18.28,0,0,1-6.3,6.68A8.78,8.78,0,0,1,345.18,71.52Zm-.1-23.93a20.57,20.57,0,0,0-2.2,3.11,23.09,23.09,0,0,0-3.12,11.15c0,3.69,1.16,6.48,3.18,7.65,1.61.92,3.7.74,5.89-.53a16.75,16.75,0,0,0,5.78-6.15,23.12,23.12,0,0,0,3.12-11.16c0-3.69-1.16-6.48-3.17-7.64-1.61-.93-3.7-.75-5.9.52a14.44,14.44,0,0,0-3.58,3.05Z" style="fill:#e0e0e0"></path><path d="M354.26,54.53l-8.09,10.06c-.73.91-1.32.76-1.32-.33V53.89c0-1.09.59-1.92,1.32-1.85l8.09.72C355,52.83,355,53.62,354.26,54.53Z" style="fill:#e0e0e0"></path></g></g></svg>
